<svg width="30" height="32" viewBox="0 0 30 32" fill="none" xmlns="http://www.w3.org/2000/svg">
<path d="M29.2331 19.2267L23.455 16.7057C22.0576 16.0976 20.9447 14.9811 20.3366 13.5873L17.8156 7.80916C17.6201 7.36114 16.9836 7.36114 16.788 7.80916L14.267 13.5873C13.6589 14.9847 12.5424 16.0976 11.1486 16.7057L5.36336 19.2302C4.91534 19.4258 4.91534 20.0587 5.36336 20.2543L11.2481 22.8571C12.642 23.4723 13.7514 24.5923 14.3523 25.9933L16.7916 31.6612C16.9836 32.1127 17.6236 32.1127 17.8192 31.6612L20.3366 25.8937C20.9447 24.4963 22.0612 23.3834 23.455 22.7753L29.2331 20.2543C29.6812 20.0587 29.6812 19.4223 29.2331 19.2267Z" fill="url(#paint0_linear_2058_13219)"/>
<path d="M5.50962 4.2869L4.32911 6.99283C4.04464 7.64709 3.52195 8.16978 2.86769 8.45424L0.158204 9.63475C-0.0515852 9.7272 -0.0515852 10.0259 0.158204 10.1148L2.86769 11.2953C3.52195 11.5798 4.04464 12.1024 4.32911 12.7567L5.50962 15.4662C5.60207 15.676 5.90075 15.676 5.98964 15.4662L7.17015 12.7567C7.45461 12.1024 7.97731 11.5798 8.63157 11.2953L11.3446 10.1112C11.5544 10.0188 11.5544 9.72365 11.3446 9.6312L8.58535 8.41157C7.93109 8.12356 7.41195 7.59731 7.13104 6.94305L5.98609 4.2869C5.89364 4.07711 5.59495 4.07355 5.50606 4.2869H5.50962Z" fill="url(#paint1_linear_2058_13219)"/>
<path d="M11.1865 3.17618L12.6515 3.82333C13 3.97622 13.2738 4.25713 13.4231 4.60204L14.0311 6.01367C14.0809 6.12745 14.2374 6.12745 14.2872 6.01367L14.913 4.57715C15.0659 4.22868 15.3432 3.95133 15.6881 3.80199L17.1246 3.17618C17.2349 3.1264 17.2349 2.96994 17.1246 2.92016L15.6881 2.29435C15.3397 2.14145 15.0623 1.8641 14.913 1.5192L14.2872 0.0826713C14.2374 -0.0275571 14.0809 -0.0275571 14.0311 0.0826713L13.4053 1.5192C13.2524 1.86766 12.9751 2.14501 12.6302 2.29435L11.1901 2.92372C11.0799 2.9735 11.0799 3.12995 11.1901 3.17973L11.1865 3.17618Z" fill="url(#paint2_linear_2058_13219)"/>
<defs>
<linearGradient id="paint0_linear_2058_13219" x1="11.5005" y1="26.4999" x2="24.5005" y2="13.4999" gradientUnits="userSpaceOnUse">
<stop stop-color="#6CD3D3"/>
<stop offset="0.705" stop-color="#0664C1"/>
<stop offset="1" stop-color="#00355A"/>
</linearGradient>
<linearGradient id="paint1_linear_2058_13219" x1="9.00073" y1="6" x2="2.00073" y2="13" gradientUnits="userSpaceOnUse">
<stop stop-color="#0590C8"/>
<stop offset="1" stop-color="#6CD3D3"/>
</linearGradient>
<linearGradient id="paint2_linear_2058_13219" x1="12.4995" y1="5" x2="15.9995" y2="1.5" gradientUnits="userSpaceOnUse">
<stop stop-color="#0590C8"/>
<stop offset="1" stop-color="#6CD3D3"/>
</linearGradient>
</defs>
</svg>
