<svg width="15" height="16" viewBox="0 0 15 16" fill="none" xmlns="http://www.w3.org/2000/svg">
<path d="M14.6166 9.61335L11.7275 8.35283C11.0288 8.04881 10.4723 7.49056 10.1683 6.79363L8.90781 3.90458C8.81003 3.68057 8.49179 3.68057 8.394 3.90458L7.13349 6.79363C6.82947 7.49234 6.27122 8.04881 5.57429 8.35283L2.68168 9.61512C2.45767 9.71291 2.45767 10.0294 2.68168 10.1272L5.62407 11.4286C6.321 11.7361 6.87569 12.2962 7.17616 12.9966L8.39578 15.8306C8.49179 16.0564 8.8118 16.0564 8.90959 15.8306L10.1683 12.9469C10.4723 12.2482 11.0306 11.6917 11.7275 11.3877L14.6166 10.1272C14.8406 10.0294 14.8406 9.71113 14.6166 9.61335Z" fill="url(#paint0_linear_2335_3998)"/>
<path d="M2.75481 2.14345L2.16455 3.49641C2.02232 3.82354 1.76097 4.08489 1.43385 4.22712L0.079102 4.81738C-0.0257926 4.8636 -0.0257926 5.01294 0.079102 5.05739L1.43385 5.64765C1.76097 5.78988 2.02232 6.05122 2.16455 6.37835L2.75481 7.7331C2.80103 7.83799 2.95037 7.83799 2.99482 7.7331L3.58508 6.37835C3.72731 6.05122 3.98866 5.78988 4.31578 5.64765L5.67231 5.05561C5.7772 5.00939 5.7772 4.86182 5.67231 4.8156L4.29267 4.20579C3.96554 4.06178 3.70597 3.79865 3.56552 3.47152L2.99304 2.14345C2.94682 2.03855 2.79748 2.03678 2.75303 2.14345H2.75481Z" fill="url(#paint1_linear_2335_3998)"/>
<path d="M5.59327 1.58809L6.32575 1.91166C6.49999 1.98811 6.63688 2.12856 6.71155 2.30102L7.01557 3.00684C7.04046 3.06373 7.11869 3.06373 7.14358 3.00684L7.45648 2.28857C7.53293 2.11434 7.67161 1.97567 7.84406 1.901L8.56232 1.58809C8.61744 1.5632 8.61744 1.48497 8.56232 1.46008L7.84406 1.14718C7.66983 1.07073 7.53115 0.932052 7.45648 0.759598L7.14358 0.0413356C7.11869 -0.0137785 7.04046 -0.0137785 7.01557 0.0413356L6.70266 0.759598C6.62622 0.93383 6.48754 1.0725 6.31509 1.14718L5.59505 1.46186C5.53993 1.48675 5.53993 1.56498 5.59505 1.58987L5.59327 1.58809Z" fill="url(#paint2_linear_2335_3998)"/>
<defs>
<linearGradient id="paint0_linear_2335_3998" x1="5.75024" y1="13.2499" x2="12.2502" y2="6.74994" gradientUnits="userSpaceOnUse">
<stop stop-color="#6CD3D3"/>
<stop offset="0.705" stop-color="#0664C1"/>
<stop offset="1" stop-color="#00355A"/>
</linearGradient>
<linearGradient id="paint1_linear_2335_3998" x1="4.50037" y1="3" x2="1.00037" y2="6.5" gradientUnits="userSpaceOnUse">
<stop stop-color="#0590C8"/>
<stop offset="1" stop-color="#6CD3D3"/>
</linearGradient>
<linearGradient id="paint2_linear_2335_3998" x1="6.24976" y1="2.5" x2="7.99976" y2="0.75" gradientUnits="userSpaceOnUse">
<stop stop-color="#0590C8"/>
<stop offset="1" stop-color="#6CD3D3"/>
</linearGradient>
</defs>
</svg>
