<svg width="9" height="14" viewBox="0 0 9 14" fill="none" xmlns="http://www.w3.org/2000/svg">
<path d="M4.23435 0C1.89951 0 0 1.89951 0 4.23412V10.8815C0 12.6013 1.39919 14 3.11898 14C4.83645 14 6.23379 12.6047 6.23749 10.8882C6.23749 10.8856 6.23818 10.8836 6.23818 10.8815V4.23412C6.23818 3.12938 5.33931 2.23028 4.23435 2.23028C3.12962 2.23028 2.23052 3.12938 2.23052 4.23412V8.98544C2.23052 9.30488 2.48935 9.56372 2.80879 9.56372C3.12823 9.56372 3.38706 9.30488 3.38706 8.98544V4.23412C3.38706 3.76664 3.7671 3.38683 4.23435 3.38683C4.70159 3.38683 5.08163 3.76687 5.08163 4.23412V10.8782C5.08163 10.8794 5.0814 10.8806 5.0814 10.8817C5.0814 11.9636 4.20104 12.8437 3.11898 12.8437C2.03691 12.8437 1.15655 11.9633 1.15655 10.8817V4.23412C1.15655 2.537 2.53723 1.15655 4.23435 1.15655C5.93123 1.15655 7.31192 2.537 7.31192 4.23412V8.98544C7.31192 9.30488 7.57076 9.56372 7.89019 9.56372C8.20963 9.56372 8.46847 9.30488 8.46847 8.98544V4.23412C8.46847 1.89951 6.56919 0 4.23435 0Z" fill="currentColor"/>
</svg>
