<svg width="19" height="18" viewBox="0 0 19 18" fill="none" xmlns="http://www.w3.org/2000/svg">
<path d="M1.01455 11.749C0.883636 12.0763 0.818182 12.4363 0.818182 12.7963C0.818182 14.3508 2.04545 15.6436 3.58364 15.7417C4.07455 16.7399 5.08909 17.3781 6.21818 17.3781C7.83818 17.3781 9.16364 16.0526 9.16364 14.4326V2.81447C9.16364 1.73447 8.28 0.85083 7.2 0.85083C6.36545 0.85083 5.66182 1.3581 5.36727 2.09447C5.17091 2.02901 4.95818 1.99628 4.74545 1.99628C3.56727 1.99628 2.61818 2.94538 2.61818 4.12356C2.61818 4.13992 2.61818 4.15628 2.61818 4.17265C1.58727 4.40174 0.818182 5.3181 0.818182 6.41447C0.818182 6.72538 0.883636 7.03628 0.998182 7.31447C0.36 7.87083 0 8.67265 0 9.52356C0 10.3908 0.376364 11.1926 1.01455 11.749ZM5.89091 8.7381V9.53992C5.89091 10.9636 4.87636 12.1581 3.51818 12.4363C3.22364 12.5017 2.94545 12.2726 2.94545 11.9617V11.929C2.94545 11.6999 3.10909 11.5036 3.33818 11.4545C4.23818 11.2745 4.90909 10.4726 4.90909 9.52356V8.70538C4.90909 8.39447 5.18727 8.16538 5.49818 8.23083C5.72727 8.27992 5.89091 8.49265 5.89091 8.7381ZM3.22364 4.99083C3.42 4.74538 3.79636 4.74538 3.99273 4.99083C4.20545 5.26901 4.53273 5.43265 4.89273 5.44901C5.13818 5.44901 5.36727 5.64538 5.38364 5.90719C5.4 6.20174 5.17091 6.43083 4.89273 6.43083C4.20545 6.43083 3.58364 6.10356 3.20727 5.59628C3.09273 5.39992 3.09273 5.15447 3.22364 4.99083ZM1.86545 7.39629C1.89818 7.15083 2.11091 6.97083 2.35636 6.97083H2.94545C3.25636 6.97083 3.48545 7.24901 3.42 7.55992C3.37091 7.78901 3.15818 7.95265 2.91273 7.95265H2.34C2.06182 7.95265 1.83273 7.69083 1.86545 7.39629Z" fill="currentColor"/>
<path d="M15.8732 2.29102C14.9732 2.29102 14.2368 3.02738 14.2368 3.92738C14.2368 4.20556 14.3023 4.45102 14.4168 4.68011L13.0587 6.05465H10.8005C10.5223 6.05465 10.3096 6.26738 10.3096 6.54556C10.3096 6.82374 10.5223 7.03647 10.8005 7.03647H13.255C13.3859 7.03647 13.5168 6.98738 13.5987 6.8892L15.1205 5.36738C15.3496 5.48192 15.6114 5.54738 15.8732 5.54738C16.7732 5.54738 17.5096 4.81102 17.5096 3.91102C17.5096 3.01102 16.7732 2.29102 15.8732 2.29102ZM15.8732 4.58192C15.5132 4.58192 15.2187 4.28738 15.2187 3.92738C15.2187 3.56738 15.5132 3.27283 15.8732 3.27283C16.2332 3.27283 16.5278 3.56738 16.5278 3.92738C16.5278 4.28738 16.2332 4.58192 15.8732 4.58192Z" fill="currentColor"/>
<path d="M18.9823 8.99989C18.9823 8.09989 18.2459 7.36353 17.3459 7.36353C16.6096 7.36353 15.9878 7.83807 15.7914 8.50898H10.8005C10.5223 8.50898 10.3096 8.72171 10.3096 8.99989C10.3096 9.27807 10.5223 9.4908 10.8005 9.4908H15.7914C16.0041 10.1617 16.6259 10.6363 17.3459 10.6363C18.2459 10.6363 18.9823 9.89989 18.9823 8.99989ZM17.3459 9.65443C16.9859 9.65443 16.6914 9.35989 16.6914 8.99989C16.6914 8.63989 16.9859 8.34534 17.3459 8.34534C17.7059 8.34534 18.0005 8.63989 18.0005 8.99989C18.0005 9.35989 17.7059 9.65443 17.3459 9.65443Z" fill="currentColor"/>
<path d="M11.6178 3.27273C12.5178 3.27273 13.2542 2.53636 13.2542 1.63636C13.2542 0.736364 12.5178 0 11.6178 0C10.7178 0 9.98145 0.736364 9.98145 1.63636C9.98145 2.53636 10.7178 3.27273 11.6178 3.27273ZM11.6178 0.981818C11.9778 0.981818 12.2724 1.27636 12.2724 1.63636C12.2724 1.99636 11.9778 2.29091 11.6178 2.29091C11.2578 2.29091 10.9633 1.99636 10.9633 1.63636C10.9633 1.27636 11.2578 0.981818 11.6178 0.981818Z" fill="currentColor"/>
<path d="M15.8732 15.7091C16.7732 15.7091 17.5096 14.9727 17.5096 14.0727C17.5096 13.1727 16.7732 12.4364 15.8732 12.4364C15.595 12.4364 15.3496 12.5018 15.1205 12.6164L13.5987 11.0945C13.5168 11.0127 13.3859 10.9636 13.255 10.9636H10.8005C10.5223 10.9636 10.3096 11.1764 10.3096 11.4545C10.3096 11.7327 10.5223 11.9454 10.8005 11.9454H13.0587L14.4332 13.32C14.3187 13.5491 14.2532 13.8109 14.2532 14.0727C14.2368 14.9727 14.9732 15.7091 15.8732 15.7091ZM15.8732 13.4182C16.2332 13.4182 16.5278 13.7127 16.5278 14.0727C16.5278 14.4327 16.2332 14.7273 15.8732 14.7273C15.5132 14.7273 15.2187 14.4327 15.2187 14.0727C15.2187 13.7127 15.5132 13.4182 15.8732 13.4182Z" fill="currentColor"/>
<path d="M13.2542 16.3637C13.2542 15.4637 12.5178 14.7273 11.6178 14.7273C10.7178 14.7273 9.98145 15.4637 9.98145 16.3637C9.98145 17.2637 10.7178 18 11.6178 18C12.5178 18 13.2542 17.2637 13.2542 16.3637ZM10.9633 16.3637C10.9633 16.0037 11.2578 15.7091 11.6178 15.7091C11.9778 15.7091 12.2724 16.0037 12.2724 16.3637C12.2724 16.7237 11.9778 17.0182 11.6178 17.0182C11.2578 17.0182 10.9633 16.7237 10.9633 16.3637Z" fill="currentColor"/>
</svg>
