<svg width="19" height="18" viewBox="0 0 19 18" fill="none" xmlns="http://www.w3.org/2000/svg">
<path d="M1.01455 11.7491C0.883636 12.0764 0.818182 12.4364 0.818182 12.7964C0.818182 14.3509 2.04545 15.6436 3.58364 15.7418C4.07455 16.74 5.08909 17.3782 6.21818 17.3782C7.83818 17.3782 9.16364 16.0527 9.16364 14.4327V2.81455C9.16364 1.73455 8.28 0.850914 7.2 0.850914C6.36545 0.850914 5.66182 1.35819 5.36727 2.09455C5.17091 2.0291 4.95818 1.99637 4.74545 1.99637C3.56727 1.99637 2.61818 2.94546 2.61818 4.12364C2.61818 4.14001 2.61818 4.15637 2.61818 4.17273C1.58727 4.40182 0.818182 5.31819 0.818182 6.41455C0.818182 6.72546 0.883636 7.03637 0.998182 7.31455C0.36 7.87091 0 8.67273 0 9.52364C0 10.3909 0.376364 11.1927 1.01455 11.7491ZM5.89091 8.73819V9.54001C5.89091 10.9636 4.87636 12.1582 3.51818 12.4364C3.22364 12.5018 2.94545 12.2727 2.94545 11.9618V11.9291C2.94545 11.7 3.10909 11.5036 3.33818 11.4546C4.23818 11.2746 4.90909 10.4727 4.90909 9.52364V8.70546C4.90909 8.39455 5.18727 8.16546 5.49818 8.23091C5.72727 8.28 5.89091 8.49273 5.89091 8.73819ZM3.22364 4.99091C3.42 4.74546 3.79636 4.74546 3.99273 4.99091C4.20545 5.2691 4.53273 5.43273 4.89273 5.4491C5.13818 5.4491 5.36727 5.64546 5.38364 5.90728C5.4 6.20182 5.17091 6.43091 4.89273 6.43091C4.20545 6.43091 3.58364 6.10364 3.20727 5.59637C3.09273 5.40001 3.09273 5.15455 3.22364 4.99091ZM1.86545 7.39637C1.89818 7.15091 2.11091 6.97091 2.35636 6.97091H2.94545C3.25636 6.97091 3.48545 7.2491 3.42 7.56001C3.37091 7.7891 3.15818 7.95273 2.91273 7.95273H2.34C2.06182 7.95273 1.83273 7.69091 1.86545 7.39637Z" fill="white"/>
<path d="M15.8732 2.29091C14.9732 2.29091 14.2368 3.02727 14.2368 3.92727C14.2368 4.20545 14.3023 4.45091 14.4168 4.68L13.0587 6.05454H10.8005C10.5223 6.05454 10.3096 6.26727 10.3096 6.54545C10.3096 6.82364 10.5223 7.03636 10.8005 7.03636H13.255C13.3859 7.03636 13.5168 6.98727 13.5987 6.88909L15.1205 5.36727C15.3496 5.48182 15.6114 5.54727 15.8732 5.54727C16.7732 5.54727 17.5096 4.81091 17.5096 3.91091C17.5096 3.01091 16.7732 2.29091 15.8732 2.29091ZM15.8732 4.58182C15.5132 4.58182 15.2187 4.28727 15.2187 3.92727C15.2187 3.56727 15.5132 3.27273 15.8732 3.27273C16.2332 3.27273 16.5278 3.56727 16.5278 3.92727C16.5278 4.28727 16.2332 4.58182 15.8732 4.58182Z" fill="white"/>
<path d="M18.9823 9C18.9823 8.1 18.2459 7.36363 17.3459 7.36363C16.6096 7.36363 15.9878 7.83818 15.7914 8.50909H10.8005C10.5223 8.50909 10.3096 8.72181 10.3096 9C10.3096 9.27818 10.5223 9.4909 10.8005 9.4909H15.7914C16.0041 10.1618 16.6259 10.6364 17.3459 10.6364C18.2459 10.6364 18.9823 9.9 18.9823 9ZM17.3459 9.65454C16.9859 9.65454 16.6914 9.36 16.6914 9C16.6914 8.64 16.9859 8.34545 17.3459 8.34545C17.7059 8.34545 18.0005 8.64 18.0005 9C18.0005 9.36 17.7059 9.65454 17.3459 9.65454Z" fill="white"/>
<path d="M11.6178 3.27273C12.5178 3.27273 13.2542 2.53636 13.2542 1.63636C13.2542 0.736364 12.5178 0 11.6178 0C10.7178 0 9.98145 0.736364 9.98145 1.63636C9.98145 2.53636 10.7178 3.27273 11.6178 3.27273ZM11.6178 0.981818C11.9778 0.981818 12.2724 1.27636 12.2724 1.63636C12.2724 1.99636 11.9778 2.29091 11.6178 2.29091C11.2578 2.29091 10.9633 1.99636 10.9633 1.63636C10.9633 1.27636 11.2578 0.981818 11.6178 0.981818Z" fill="white"/>
<path d="M15.8732 15.7091C16.7732 15.7091 17.5096 14.9727 17.5096 14.0727C17.5096 13.1727 16.7732 12.4364 15.8732 12.4364C15.595 12.4364 15.3496 12.5018 15.1205 12.6164L13.5987 11.0945C13.5168 11.0127 13.3859 10.9636 13.255 10.9636H10.8005C10.5223 10.9636 10.3096 11.1764 10.3096 11.4545C10.3096 11.7327 10.5223 11.9455 10.8005 11.9455H13.0587L14.4332 13.32C14.3187 13.5491 14.2532 13.8109 14.2532 14.0727C14.2368 14.9727 14.9732 15.7091 15.8732 15.7091ZM15.8732 13.4182C16.2332 13.4182 16.5278 13.7127 16.5278 14.0727C16.5278 14.4327 16.2332 14.7273 15.8732 14.7273C15.5132 14.7273 15.2187 14.4327 15.2187 14.0727C15.2187 13.7127 15.5132 13.4182 15.8732 13.4182Z" fill="white"/>
<path d="M13.2542 16.3636C13.2542 15.4636 12.5178 14.7273 11.6178 14.7273C10.7178 14.7273 9.98145 15.4636 9.98145 16.3636C9.98145 17.2636 10.7178 18 11.6178 18C12.5178 18 13.2542 17.2636 13.2542 16.3636ZM10.9633 16.3636C10.9633 16.0036 11.2578 15.7091 11.6178 15.7091C11.9778 15.7091 12.2724 16.0036 12.2724 16.3636C12.2724 16.7236 11.9778 17.0182 11.6178 17.0182C11.2578 17.0182 10.9633 16.7236 10.9633 16.3636Z" fill="white"/>
</svg>
