<svg width="11" height="18" viewBox="0 0 11 18" fill="none" xmlns="http://www.w3.org/2000/svg">
<path d="M5.44416 0C2.44223 0 0 2.44223 0 5.44387V13.9905C0 16.2016 1.79896 18 4.01011 18C6.21829 18 8.01487 16.2061 8.01963 13.9991C8.01963 13.9958 8.02052 13.9932 8.02052 13.9905V5.44387C8.02052 4.02349 6.86483 2.86751 5.44416 2.86751C4.02379 2.86751 2.86781 4.02349 2.86781 5.44387V11.5527C2.86781 11.9634 3.2006 12.2962 3.6113 12.2962C4.02201 12.2962 4.3548 11.9634 4.3548 11.5527V5.44387C4.3548 4.84283 4.84342 4.3545 5.44416 4.3545C6.04491 4.3545 6.53353 4.84312 6.53353 5.44387V13.9863C6.53353 13.9878 6.53323 13.9893 6.53323 13.9908C6.53323 15.3817 5.40134 16.5133 4.01011 16.5133C2.61889 16.5133 1.48699 15.3814 1.48699 13.9908V5.44387C1.48699 3.26186 3.26216 1.48699 5.44416 1.48699C7.62587 1.48699 9.40104 3.26186 9.40104 5.44387V11.5527C9.40104 11.9634 9.73383 12.2962 10.1445 12.2962C10.5552 12.2962 10.888 11.9634 10.888 11.5527V5.44387C10.888 2.44223 8.4461 0 5.44416 0Z" fill="currentColor"/>
</svg>
