<svg width="21" height="12" viewBox="0 0 21 12" fill="none" xmlns="http://www.w3.org/2000/svg">
<path d="M20.3097 5.60048C20.1276 5.373 15.8069 0.0550901 10.3099 0.000630652C10.2816 0.000249637 10.2533 0 10.225 0C10.1966 0 10.1683 0.000249637 10.1401 0.000630652C4.6428 0.0550638 0.322375 5.373 0.140261 5.60048C-0.0467537 5.83388 -0.0467537 6.1659 0.140261 6.39928C0.322375 6.62674 4.6428 11.9449 10.1401 11.9994C10.1683 11.9998 10.1966 12 10.225 12C10.2533 12 10.2816 11.9998 10.3099 11.9994C15.8069 11.9449 20.1276 6.62674 20.3097 6.39928C20.4967 6.1659 20.4967 5.83388 20.3097 5.60048ZM10.225 10.7219C7.62131 10.7219 5.50297 8.60356 5.50297 5.9999C5.50297 3.39622 7.62131 1.27811 10.225 1.27811C12.8286 1.27811 14.947 3.39622 14.947 5.9999C14.947 8.60356 12.8286 10.7219 10.225 10.7219Z" fill="currentColor"/>
<path d="M10.2253 3.2308C8.69837 3.2308 7.45605 4.47294 7.45605 5.99985C7.45605 7.52698 8.69837 8.7693 10.2253 8.7693C11.7522 8.7693 12.9945 7.52698 12.9945 5.99985C12.9945 4.47294 11.7522 3.2308 10.2253 3.2308Z" fill="currentColor"/>
</svg>
