<svg width="10" height="10" viewBox="0 0 10 10" fill="none" xmlns="http://www.w3.org/2000/svg">
<path fill-rule="evenodd" clip-rule="evenodd" d="M5 0.00195312C7.75714 0.00195312 10 2.24481 10 5.00195C10 7.7591 7.75714 10.002 5 10.002C2.24286 10.002 0 7.7591 0 5.00195C0 2.24481 2.24286 0.00195312 5 0.00195312ZM5.8027 3.72812H4.55009L3.95965 6.51769C3.93704 6.62813 3.92009 6.73074 3.90878 6.82552C3.89748 6.9203 3.89182 7.00725 3.89182 7.08682C3.89182 7.27073 3.91574 7.4277 3.964 7.55813C4.01226 7.68857 4.07791 7.79595 4.16139 7.88073C4.24487 7.96551 4.34356 8.02813 4.45661 8.06769C4.56965 8.10682 4.69139 8.12683 4.82183 8.12683C4.93487 8.12683 5.04661 8.109 5.15704 8.07378C5.26748 8.03857 5.36661 7.98378 5.45443 7.91031C5.54183 7.83683 5.61487 7.74378 5.67313 7.63247C5.73095 7.52073 5.76574 7.38682 5.77705 7.23117C5.74574 7.24508 5.71183 7.2577 5.67531 7.26944C5.63835 7.28074 5.57879 7.28639 5.49661 7.28639C5.37531 7.28639 5.28617 7.26291 5.22922 7.21639C5.17269 7.16944 5.14444 7.08552 5.14444 6.96378C5.14444 6.91812 5.14661 6.87247 5.15096 6.82552C5.15487 6.779 5.164 6.73117 5.17835 6.68335L5.8027 3.72812ZM5.41183 1.87677C5.31574 1.87677 5.22574 1.89504 5.14226 1.932C5.05878 1.96895 4.98574 2.01938 4.92357 2.08286C4.86139 2.14634 4.81269 2.21983 4.77704 2.30374C4.74182 2.38722 4.724 2.47677 4.724 2.57329C4.724 2.66982 4.74182 2.75938 4.77704 2.84286C4.81269 2.92634 4.86139 2.99851 4.92357 3.05938C4.98574 3.12025 5.05878 3.16851 5.14226 3.20373C5.22574 3.23895 5.31574 3.25678 5.41183 3.25678C5.50792 3.25678 5.59791 3.23895 5.68139 3.20373C5.76487 3.16851 5.83878 3.12025 5.90226 3.05938C5.96574 2.99851 6.01618 2.92634 6.05313 2.84286C6.08966 2.75938 6.10835 2.66982 6.10835 2.57329C6.10835 2.47677 6.08966 2.38722 6.05313 2.30374C6.01618 2.21983 5.96574 2.14634 5.90226 2.08286C5.83878 2.01938 5.76487 1.96895 5.68139 1.932C5.59791 1.89504 5.50792 1.87677 5.41183 1.87677Z" fill="#808080"/>
</svg>
