<svg width="20" height="22" viewBox="0 0 20 22" fill="none" xmlns="http://www.w3.org/2000/svg">
<path d="M2.18883 1.25005C1.44124 1.25005 0.825195 1.86609 0.825195 2.61368V19.8863C0.825195 20.6339 1.44124 21.25 2.18883 21.25H9.46152C9.52175 21.2508 9.58155 21.2397 9.63745 21.2172C9.69334 21.1948 9.74422 21.1614 9.78711 21.1191C9.83001 21.0768 9.86407 21.0264 9.88732 20.9709C9.91057 20.9153 9.92254 20.8556 9.92254 20.7954C9.92254 20.7352 9.91057 20.6755 9.88732 20.62C9.86407 20.5644 9.83001 20.514 9.78711 20.4717C9.74422 20.4294 9.69334 20.3961 9.63745 20.3736C9.58155 20.3511 9.52175 20.34 9.46152 20.3409H2.18883C1.92915 20.3409 1.73428 20.146 1.73428 19.8863V2.61368C1.73428 2.354 1.92915 2.15913 2.18883 2.15913H9.46152C9.52175 2.15998 9.58155 2.14886 9.63745 2.1264C9.69334 2.10393 9.74422 2.07059 9.78711 2.0283C9.83001 1.986 9.86407 1.93561 9.88732 1.88004C9.91057 1.82446 9.92254 1.76483 9.92254 1.70459C9.92254 1.64435 9.91057 1.58471 9.88732 1.52914C9.86407 1.47357 9.83001 1.42317 9.78711 1.38088C9.74422 1.33859 9.69334 1.30524 9.63745 1.28278C9.58155 1.26032 9.52175 1.24919 9.46152 1.25005H2.18883ZM13.6845 5.78838C13.5979 5.79681 13.5155 5.82994 13.4471 5.88383C13.3788 5.93773 13.3273 6.01012 13.2989 6.0924C13.2705 6.17468 13.2663 6.26339 13.2868 6.34798C13.3073 6.43258 13.3517 6.50951 13.4146 6.56962L17.6405 10.7955H7.37063C7.35643 10.7948 7.34221 10.7948 7.32802 10.7955C7.26832 10.7982 7.20975 10.8128 7.15566 10.8382C7.10157 10.8636 7.05302 10.8994 7.01279 10.9436C6.97255 10.9878 6.94141 11.0395 6.92114 11.0957C6.90088 11.1519 6.89189 11.2116 6.89469 11.2713C6.89749 11.331 6.91202 11.3896 6.93745 11.4437C6.96289 11.4977 6.99872 11.5463 7.04292 11.5865C7.08712 11.6267 7.13881 11.6579 7.19503 11.6781C7.25126 11.6984 7.31093 11.7074 7.37063 11.7045H17.6405L13.4146 15.9304C13.365 15.9704 13.3243 16.0204 13.2952 16.0772C13.2661 16.134 13.2494 16.1963 13.2459 16.26C13.2425 16.3237 13.2526 16.3874 13.2754 16.447C13.2982 16.5066 13.3333 16.5607 13.3784 16.6058C13.4235 16.6509 13.4776 16.686 13.5372 16.7088C13.5968 16.7317 13.6605 16.7417 13.7242 16.7383C13.7879 16.7349 13.8502 16.7181 13.907 16.689C13.9638 16.6599 14.0138 16.6193 14.0538 16.5696L19.0538 11.5696C19.1379 11.4845 19.1851 11.3697 19.1851 11.25C19.1851 11.1303 19.1379 11.0155 19.0538 10.9304L14.0538 5.93042C14.0118 5.88597 13.9611 5.85047 13.905 5.82606C13.8488 5.80166 13.7883 5.78884 13.7271 5.78838C13.7129 5.78771 13.6987 5.78771 13.6845 5.78838Z" fill="currentColor" stroke="currentColor" stroke-width="0.75"/>
<path d="M13.8993 5.27759C13.545 4.93161 12.9777 4.93747 12.6306 5.29069C12.2825 5.64504 12.288 6.21464 12.6429 6.56222L17.4607 11.2809L12.7498 16.0908C12.3985 16.4494 12.4065 17.0256 12.7677 17.3743C13.126 17.7203 13.6966 17.7114 14.044 17.3545L20 11.236L13.8993 5.27759Z" fill="currentColor"/>
</svg>
