<svg width="13" height="18" viewBox="0 0 13 18" fill="none" xmlns="http://www.w3.org/2000/svg">
<path d="M5.94308 11.8929H6.26451C6.70784 11.8937 7.14698 11.8071 7.55681 11.638C7.96663 11.469 8.3391 11.2207 8.65288 10.9076C8.96666 10.5944 9.2156 10.2224 9.38545 9.81289C9.5553 9.40338 9.64272 8.96441 9.64272 8.52107V3.37822C9.64357 2.93489 9.55698 2.49574 9.38791 2.08592C9.21884 1.67609 8.97061 1.30363 8.65742 0.989851C8.34424 0.67607 7.97225 0.427131 7.56275 0.257282C7.15325 0.0874316 6.71427 5.32308e-06 6.27094 6.12884e-06H5.94951C5.50618 -0.000839115 5.06703 0.0857509 4.65721 0.25482C4.24738 0.42389 3.87492 0.67212 3.56114 0.985303C3.24736 1.29849 2.99842 1.67047 2.82857 2.07998C2.65872 2.48948 2.57129 2.92846 2.5713 3.37179V8.51465C2.57045 8.95798 2.65704 9.39712 2.82611 9.80695C2.99518 10.2168 3.24341 10.5892 3.55659 10.903C3.86978 11.2168 4.24176 11.4657 4.65127 11.6356C5.06077 11.8054 5.49975 11.8929 5.94308 11.8929ZM3.85701 3.37179C3.85786 2.81879 4.07791 2.28868 4.46894 1.89765C4.85997 1.50662 5.39008 1.28657 5.94308 1.28572H6.26451C6.53888 1.2853 6.81064 1.33892 7.06429 1.44353C7.31793 1.54813 7.54849 1.70167 7.7428 1.89538C7.9371 2.08909 8.09135 2.31918 8.19674 2.5725C8.30213 2.82582 8.35659 3.09742 8.35701 3.37179V8.51465C8.35743 8.78901 8.30381 9.06078 8.1992 9.31442C8.09459 9.56807 7.94105 9.79863 7.74734 9.99294C7.55363 10.1872 7.32355 10.3415 7.07023 10.4469C6.8169 10.5523 6.54531 10.6067 6.27094 10.6071H5.94951C5.67514 10.6076 5.40337 10.5539 5.14973 10.4493C4.89608 10.3447 4.66553 10.1912 4.47122 9.99748C4.27691 9.80377 4.12266 9.57369 4.01728 9.32036C3.91189 9.06704 3.85743 8.79544 3.85701 8.52107V3.37179Z" fill="currentColor"/>
<path d="M12.2143 8.35721C12.2143 8.18672 12.1466 8.0232 12.026 7.90264C11.9054 7.78208 11.7419 7.71436 11.5714 7.71436C11.4009 7.71436 11.2374 7.78208 11.1169 7.90264C10.9963 8.0232 10.9286 8.18672 10.9286 8.35721C10.9286 9.63593 10.4206 10.8623 9.5164 11.7665C8.61221 12.6707 7.38586 13.1786 6.10714 13.1786C4.82842 13.1786 3.60207 12.6707 2.69788 11.7665C1.79368 10.8623 1.28571 9.63593 1.28571 8.35721C1.28571 8.18672 1.21798 8.0232 1.09743 7.90264C0.976866 7.78208 0.813353 7.71436 0.642857 7.71436C0.472361 7.71436 0.308848 7.78208 0.188289 7.90264C0.0677295 8.0232 0 8.18672 0 8.35721C0.000352727 9.86538 0.558743 11.3201 1.56762 12.4411C2.5765 13.5622 3.9645 14.2702 5.46428 14.429V14.4644V16.7144H3.21428C3.04379 16.7144 2.88028 16.7821 2.75972 16.9026C2.63916 17.0232 2.57143 17.1867 2.57143 17.3572C2.57143 17.5277 2.63916 17.6912 2.75972 17.8118C2.88028 17.9323 3.04379 18.0001 3.21428 18.0001H9.32143C9.49192 18.0001 9.65543 17.9323 9.77599 17.8118C9.89655 17.6912 9.96428 17.5277 9.96428 17.3572C9.96428 17.1867 9.89655 17.0232 9.77599 16.9026C9.65543 16.7821 9.49192 16.7144 9.32143 16.7144H6.75V14.4644C6.75 14.4644 6.75 14.4419 6.75 14.429C8.24978 14.2702 9.63779 13.5622 10.6467 12.4411C11.6555 11.3201 12.2139 9.86538 12.2143 8.35721Z" fill="currentColor"/>
</svg>
