<svg width="34" height="32" viewBox="0 0 34 32" fill="none" xmlns="http://www.w3.org/2000/svg">
<path d="M4.7998 26.5999V24.7999H5.9998V18.7999C5.9998 17.3499 6.44564 16.0749 7.33731 14.9749C8.22897 13.8749 9.38314 13.1916 10.7998 12.9249V11.5999C10.7998 11.2666 10.9165 10.9832 11.1498 10.7499C11.3831 10.5166 11.6665 10.3999 11.9998 10.3999C12.3331 10.3999 12.6165 10.5166 12.8498 10.7499C13.0831 10.9832 13.1998 11.2666 13.1998 11.5999V12.9249C14.6165 13.1916 15.7706 13.8749 16.6623 14.9749C17.554 16.0749 17.9998 17.3499 17.9998 18.7999V24.7999H19.1998V26.5999H4.7998ZM11.9945 29.5999C11.498 29.5999 11.0748 29.4237 10.7248 29.0712C10.3748 28.7187 10.1998 28.2949 10.1998 27.7999H13.7998C13.7998 28.2999 13.623 28.7249 13.2695 29.0749C12.916 29.4249 12.491 29.5999 11.9945 29.5999Z" fill="currentColor"/>
<path d="M18 8C18 3.58172 21.5817 0 26 0C30.4183 0 34 3.58172 34 8C34 12.4183 30.4183 16 26 16C21.5817 16 18 12.4183 18 8Z" fill="#FFD300"/>
<path d="M25.7345 12.088C25.1919 12.088 24.6639 12.0037 24.1505 11.835C23.6445 11.6663 23.2302 11.439 22.9075 11.153L23.4135 10.284C23.6702 10.526 24.0039 10.724 24.4145 10.878C24.8252 11.032 25.2652 11.109 25.7345 11.109C26.3065 11.109 26.7502 10.988 27.0655 10.746C27.3882 10.4967 27.5495 10.163 27.5495 9.745C27.5495 9.34167 27.3955 9.019 27.0875 8.777C26.7869 8.52767 26.3065 8.403 25.6465 8.403H25.0305V7.633L27.3185 4.817L27.4725 5.257H23.2595V4.3H28.3415V5.048L26.0645 7.853L25.4925 7.512H25.8555C26.7869 7.512 27.4835 7.721 27.9455 8.139C28.4149 8.557 28.6495 9.08867 28.6495 9.734C28.6495 10.1667 28.5432 10.5627 28.3305 10.922C28.1179 11.2813 27.7952 11.5673 27.3625 11.78C26.9372 11.9853 26.3945 12.088 25.7345 12.088Z" fill="currentColor"/>
</svg>
