<svg width="30" height="15" viewBox="0 0 30 15" fill="none" xmlns="http://www.w3.org/2000/svg">
<path d="M29.9226 12.1555C29.9226 12.5742 29.5828 12.914 29.1641 12.914H23.3606L11.9117 14.9604C11.7577 14.9841 11.5996 14.9999 11.4416 14.9999C10.7463 14.9999 10.0589 14.7194 9.56506 14.2256L0.794687 5.51053C0.253452 4.9693 -0.0349432 4.22658 0.00456298 3.46806C0.0440692 2.70559 0.403575 1.99448 0.996168 1.5125C1.99963 0.698676 3.44555 0.714479 4.42926 1.54806L9.43864 5.78312C9.45444 4.11991 10.8135 2.77275 12.4846 2.77275H16.6288L22.8233 1.54411C23.9335 1.32682 25.0712 1.61127 25.9443 2.32633C26.6159 2.87942 27.0703 3.63399 27.2401 4.47547H29.1641C29.5828 4.47547 29.9226 4.81522 29.9226 5.23399C29.9226 5.65275 29.5828 5.9925 29.1641 5.9925H26.5606C26.1419 5.9925 25.8021 5.65275 25.8021 5.23399C25.8021 4.55843 25.5019 3.93028 24.9804 3.49967C24.4589 3.073 23.7794 2.90312 23.1196 3.03349L16.854 4.27794C16.8026 4.28979 16.7552 4.29374 16.7038 4.29374H12.4846C11.6391 4.29374 10.9557 4.9772 10.9557 5.81868V5.90954H17.5137C17.9325 5.90954 18.2722 6.2493 18.2722 6.66806C18.2722 7.08683 17.9325 7.42658 17.5137 7.42658H9.30827C9.12654 7.42658 8.95271 7.36337 8.81444 7.2488L3.4495 2.70559C3.01889 2.34213 2.39074 2.33818 1.95222 2.69374C1.69543 2.89917 1.5374 3.21127 1.5216 3.54312C1.5058 3.87497 1.62827 4.19892 1.8653 4.43201L10.6357 13.1471C10.9004 13.4118 11.2757 13.5303 11.6431 13.4631L23.1591 11.4049C23.2066 11.397 23.25 11.393 23.2935 11.393H29.1641C29.5828 11.393 29.9226 11.7367 29.9226 12.1555Z" fill="currentColor"/>
</svg>
