<svg width="16" height="19" viewBox="0 0 16 19" fill="none" xmlns="http://www.w3.org/2000/svg">
<path d="M15.1438 5.07787C15.1438 4.6003 15.1211 4.12272 15.1211 3.69063C15.1211 3.34951 14.8482 3.05387 14.4843 3.05387C11.8008 3.05387 9.73133 2.28065 8.02571 0.620513C7.77555 0.393097 7.38894 0.393097 7.13878 0.620513C5.43316 2.28065 3.38641 3.05387 0.68016 3.05387C0.339036 3.05387 0.0433946 3.32677 0.0433946 3.69063C0.0433946 4.12272 0.0433949 4.6003 0.0206533 5.07787C-0.0703132 9.60346 -0.184021 15.7892 7.34346 18.4045C7.41168 18.4272 7.47991 18.45 7.54813 18.45C7.61636 18.45 7.68458 18.45 7.75281 18.4045C15.3258 15.7892 15.2121 9.60346 15.1438 5.07787ZM10.641 8.14799L7.16152 11.6275C7.04782 11.7412 6.88862 11.8094 6.70669 11.8094C6.5475 11.8094 6.38831 11.7412 6.25186 11.6275L4.5235 9.8991C4.27334 9.64894 4.27334 9.26233 4.5235 9.01217C4.77365 8.76202 5.16026 8.76202 5.41042 9.01217L6.70669 10.3084L9.75407 7.26107C10.0042 7.01091 10.3908 7.01091 10.641 7.26107C10.8912 7.51123 10.8912 7.89783 10.641 8.14799Z" fill="#0590C8"/>
</svg>
