<svg width="14" height="13" viewBox="0 0 14 13" fill="none" xmlns="http://www.w3.org/2000/svg">
<path d="M7.44746 0.883798C7.51582 0.829905 7.59822 0.796773 7.68486 0.788341C7.69906 0.787675 7.71328 0.787675 7.72748 0.788341C7.78869 0.788801 7.84918 0.801619 7.90532 0.826028C7.96146 0.850436 8.01209 0.885932 8.05418 0.930386L13.0542 5.93036C13.1383 6.01546 13.1855 6.1303 13.1855 6.24996C13.1855 6.36963 13.1383 6.48447 13.0542 6.56957L8.05418 11.5695C8.01415 11.6192 7.96411 11.6599 7.90732 11.689C7.85053 11.718 7.78825 11.7348 7.72455 11.7382C7.66084 11.7417 7.59713 11.7316 7.53756 11.7088C7.47799 11.686 7.42388 11.6509 7.37877 11.6057C7.33366 11.5606 7.29855 11.5065 7.27572 11.447C7.2529 11.3874 7.24286 11.3237 7.24628 11.26C7.24969 11.1963 7.26648 11.134 7.29555 11.0772C7.32461 11.0204 7.3653 10.9704 7.41498 10.9303L11.6408 6.70451H1.37097C1.31127 6.70732 1.25161 6.69834 1.19538 6.67809C1.13915 6.65784 1.08746 6.62671 1.04326 6.58648C0.999066 6.54625 0.963228 6.4977 0.937794 6.44362C0.91236 6.38954 0.897829 6.33097 0.89503 6.27128C0.892232 6.21158 0.901221 6.15191 0.921484 6.09569C0.941748 6.03946 0.972888 5.98778 1.01313 5.94359C1.05337 5.8994 1.10192 5.86357 1.156 5.83815C1.21009 5.81273 1.26866 5.79821 1.32836 5.79542C1.34255 5.79475 1.35677 5.79475 1.37097 5.79542H11.6408L7.41498 1.56959C7.35202 1.50947 7.30764 1.43255 7.28712 1.34795C7.2666 1.26335 7.2708 1.17464 7.29922 1.09236C7.32765 1.01008 7.3791 0.937692 7.44746 0.883798Z" fill="#102636" stroke="#102636" stroke-width="0.75"/>
</svg>
