<svg width="18" height="18" viewBox="0 0 18 18" fill="none" xmlns="http://www.w3.org/2000/svg">
<path d="M17.0466 16.2352L13.3004 12.4946C14.838 10.6771 15.3219 8.19223 14.5796 5.93004C13.8372 3.66859 11.974 1.95463 9.65828 1.4022C7.34255 0.850403 4.9062 1.53926 3.22295 3.22249C1.53971 4.90573 0.850935 7.34209 1.40266 9.65782C1.95516 11.9735 3.66905 13.8366 5.9305 14.5791C8.19269 15.3215 10.6776 14.8375 12.495 13.2999L16.2356 17.0462C16.3427 17.1539 16.489 17.2153 16.6411 17.2153C16.7931 17.2153 16.9395 17.1539 17.0466 17.0462C17.1543 16.9391 17.2157 16.7927 17.2157 16.6407C17.2157 16.4886 17.1544 16.3422 17.0466 16.2352ZM2.36424 8.07454C2.36424 6.55976 2.96601 5.10715 4.03676 4.03627C5.10751 2.96539 6.56027 2.36374 8.07504 2.36374C9.5898 2.36374 11.0424 2.96552 12.1133 4.03627C13.1842 5.10702 13.7858 6.55978 13.7858 8.07454C13.7858 9.58931 13.1841 11.0419 12.1133 12.1128C11.0426 13.1837 9.5898 13.7853 8.07504 13.7853C6.56027 13.7853 5.10764 13.1836 4.03676 12.1128C2.96588 11.0421 2.36424 9.58931 2.36424 8.07454Z" fill="currentColor" stroke="currentColor" stroke-width="0.5"/>
</svg>
