<svg width="9" height="6" viewBox="0 0 9 6" fill="none" xmlns="http://www.w3.org/2000/svg">
<path d="M7.57982 0.000983258C7.36944 0.0119569 7.17163 0.10451 7.02839 0.258987L3.33542 4.09363L1.32196 2.45455C1.15492 2.31904 0.940888 2.25543 0.72695 2.27773C0.513013 2.30003 0.316696 2.4064 0.181186 2.57344C0.0456765 2.74048 -0.0179255 2.95451 0.00437202 3.16845C0.0266695 3.38239 0.13304 3.57871 0.300083 3.71422L2.89024 5.81872C3.04754 5.94655 3.24707 6.01072 3.4494 5.99854C3.65173 5.98636 3.84212 5.89872 3.98296 5.75294L8.19195 1.38206C8.30761 1.26646 8.38555 1.11855 8.41551 0.957796C8.44546 0.79704 8.42603 0.630975 8.35977 0.481479C8.29351 0.331983 8.18353 0.206063 8.0443 0.120292C7.90508 0.0345213 7.74314 -0.00707259 7.57982 0.000983258Z" fill="#0590C8"/>
</svg>
