<svg width="12" height="13" viewBox="0 0 12 13" fill="none" xmlns="http://www.w3.org/2000/svg">
<path d="M0.599609 10.74C0.599609 10.9842 0.64772 11.2261 0.741193 11.4518C0.834667 11.6774 0.971674 11.8825 1.14439 12.0552C1.31711 12.2279 1.52215 12.3649 1.74782 12.4584C1.97348 12.5519 2.21535 12.6 2.45961 12.6H9.53961C9.78386 12.6 10.0257 12.5519 10.2514 12.4584C10.4771 12.3649 10.6821 12.2279 10.8548 12.0552C11.0275 11.8825 11.1645 11.6774 11.258 11.4518C11.3515 11.2261 11.3996 10.9842 11.3996 10.74V0.599976H0.599609V10.74ZM7.19961 2.99998H8.39961V10.2H7.19961V2.99998ZM3.59961 2.99998H4.79961V10.2H3.59961V2.99998Z" fill="currentColor"/>
</svg>
